# xmcd
#
# Track frame offsets:
#	222
#	18175
#	35930
#	54650
#	69940
#	84417
#	113832
#	132005
#	153862
#	175402
#	190742
#	205597
#
# Disc length: 2986 seconds
# Revision: 0
# Processed by: cddbd v1.5.2PL0 Copyright (c) Steve Scherf et al.
# Submitted via: dBpowerAMP V12.0
#
DISCID=960ba80c
DTITLE=John Ellison - Welcome Back
DYEAR=1993
DGENRE=Soul
TTITLE0=Love Don't Get Better Than This
TTITLE1=Early Morning Lover
TTITLE2=Welcome Back (Into my Arms)
TTITLE3=Weak Spot
TTITLE4=Good Dose of Love
TTITLE5=Lie to me
TTITLE6=Your Place or Mine
TTITLE7=It's Not Easy Being a Woman
TTITLE8=You Ain't Ready
TTITLE9=I've Fallen in Love With You
TTITLE10=Love You to Pieces
TTITLE11=Some Kind of Wonderful
EXTD=
EXTT0=
EXTT1=
EXTT2=
EXTT3=
EXTT4=
EXTT5=
EXTT6=
EXTT7=
EXTT8=
EXTT9=
EXTT10=
EXTT11=
PLAYORDER=
